<?xml version="1.0" encoding="UTF-8"?>
<!DOCTYPE svg PUBLIC "-//W3C//DTD SVG 1.1//EN" "http://www.w3.org/Graphics/SVG/1.1/DTD/svg11.dtd">
<!-- Creator: CorelDRAW X7 -->
<svg xmlns="http://www.w3.org/2000/svg" xml:space="preserve" width="1614px" height="2571px" version="1.1" style="shape-rendering:geometricPrecision; text-rendering:geometricPrecision; image-rendering:optimizeQuality; fill-rule:evenodd; clip-rule:evenodd"
viewBox="0 0 1615 2572"
 xmlns:xlink="http://www.w3.org/1999/xlink">
 <defs>
  <style type="text/css">
   <![CDATA[
    .str0 {stroke:#D0A43B;stroke-width:4.16895}
    .fil14 {fill:none;fill-rule:nonzero}
    .fil11 {fill:#ACA6D1;fill-rule:nonzero}
    .fil12 {fill:#9B97CA;fill-rule:nonzero}
    .fil15 {fill:#084F99;fill-rule:nonzero}
    .fil13 {fill:#444444;fill-rule:nonzero}
    .fil5 {fill:#51AAD7;fill-rule:nonzero}
    .fil6 {fill:#58BAE0;fill-rule:nonzero}
    .fil7 {fill:#5ECAB7;fill-rule:nonzero}
    .fil8 {fill:#64D4C0;fill-rule:nonzero}
    .fil9 {fill:#DBDB6F;fill-rule:nonzero}
    .fil1 {fill:#E18B39;fill-rule:nonzero}
    .fil4 {fill:#E5B644;fill-rule:nonzero}
    .fil10 {fill:#E7E876;fill-rule:nonzero}
    .fil2 {fill:#EA9B44;fill-rule:nonzero}
    .fil3 {fill:#F1C64D;fill-rule:nonzero}
    .fil0 {fill:#ECECEC;fill-rule:nonzero}
   ]]>
  </style>
 </defs>
 <g id="Layer_x0020_1">
  <metadata id="CorelCorpID_0Corel-Layer"/>
  <g id="_261862224">
   <g>
    <polygon class="fil0" points="199,254 0,545 199,545 743,545 942,545 743,254 "/>
    <polygon class="fil1" points="743,143 743,142 199,142 0,182 0,433 199,433 743,433 743,433 942,433 942,182 "/>
    <polygon class="fil2" points="743,1922 199,1922 199,219 743,219 "/>
    <polygon class="fil1" points="199,1917 0,1875 0,190 199,219 "/>
    <polygon class="fil1" points="743,1920 942,1879 942,190 743,219 "/>
    <polygon class="fil3" points="743,1013 199,1013 199,510 743,510 "/>
    <polygon class="fil4" points="199,1923 0,1880 0,477 199,508 "/>
    <polygon class="fil4" points="743,1924 942,1881 942,477 743,508 "/>
    <polygon class="fil5" points="743,1682 199,1682 199,943 743,943 "/>
    <polygon class="fil6" points="199,1920 0,1877 0,912 199,943 "/>
    <polygon class="fil6" points="743,1924 942,1881 942,912 743,943 "/>
    <polygon class="fil7" points="743,2150 199,2150 199,1680 743,1680 "/>
    <polygon class="fil8" points="199,2161 0,2118 0,1648 199,1679 "/>
    <polygon class="fil8" points="743,2165 942,2122 942,1648 743,1679 "/>
    <polygon class="fil9" points="743,2448 199,2448 199,2259 743,2259 "/>
    <polygon class="fil10" points="199,2448 0,2404 0,2228 199,2259 "/>
    <polygon class="fil10" points="743,2339 942,2296 942,2119 743,2150 "/>
    <polygon class="fil11" points="743,2327 199,2327 199,2132 743,2132 "/>
    <polygon class="fil12" points="199,2333 0,2290 0,2100 199,2131 "/>
    <polygon class="fil12" points="743,2337 942,2294 942,2100 743,2131 "/>
    <polygon class="fil10" points="743,2572 942,2529 942,2296 743,2327 "/>
    <polygon class="fil10" points="199,2572 0,2529 0,2296 199,2327 "/>
    <polygon class="fil9" points="743,2572 199,2572 199,2327 743,2327 "/>
   </g>
   <path class="fil13" d="M415 397l-13 0 0 -37 0 -7 0 -6c-2,2 -4,3 -5,4l-7 6 -7 -8 21 -17 11 0 0 65zm65 -13l-8 0 0 13 -13 0 0 -13 -28 0 0 -10 28 -42 13 0 0 41 8 0 0 11zm-21 -11l0 -11c0,-2 0,-4 0,-8 0,-4 0,-6 0,-6l0 0c-1,2 -3,5 -4,7l-12 18 16 0zm36 -21c0,3 0,6 1,8 0,2 1,3 3,3 3,0 4,-4 4,-11 0,-8 -1,-12 -4,-12 -2,0 -3,1 -3,3 -1,2 -1,5 -1,9zm19 0c0,6 -1,12 -4,15 -2,3 -6,5 -11,5 -5,0 -9,-2 -12,-5 -2,-4 -4,-9 -4,-15 0,-14 6,-21 16,-21 5,0 9,2 11,5 3,4 4,9 4,16zm31 -20l-36 65 -11 0 37 -65 10 0zm-4 46c0,4 0,6 1,8 0,2 1,3 3,3 3,0 4,-4 4,-11 0,-8 -1,-11 -4,-11 -2,0 -3,0 -3,2 -1,2 -1,5 -1,9zm19 0c0,7 -1,12 -4,15 -2,4 -6,5 -11,5 -5,0 -9,-1 -12,-5 -2,-4 -4,-9 -4,-15 0,-14 5,-21 16,-21 5,0 9,2 11,6 3,3 4,8 4,15z"/>
   <path class="fil13" d="M415 759l-14 0 0 -37 0 -7 1 -7c-3,3 -4,4 -5,5l-8 6 -6 -8 21 -17 11 0 0 65zm64 -37c0,13 -3,22 -8,29 -6,6 -14,9 -25,9 -4,0 -7,0 -9,0l0 -11c3,0 5,1 8,1 5,0 8,-1 11,-3 3,-1 6,-3 7,-6 2,-3 3,-7 3,-12l-1 0c-1,3 -3,5 -6,6 -2,1 -5,2 -8,2 -6,0 -10,-2 -14,-6 -3,-3 -5,-9 -5,-15 0,-7 2,-13 6,-17 4,-4 10,-6 17,-6 5,0 9,1 12,4 4,2 7,5 9,9 2,5 3,10 3,16zm-24 -18c-3,0 -5,1 -7,3 -1,2 -2,5 -2,9 0,3 1,5 2,7 2,2 4,3 7,3 3,0 5,-1 7,-3 2,-2 3,-4 3,-6 0,-4 -1,-7 -3,-9 -2,-2 -4,-4 -7,-4zm41 10c0,3 0,6 1,8 1,2 2,3 3,3 3,0 5,-4 5,-11 0,-8 -2,-12 -5,-12 -1,0 -2,1 -3,3 -1,2 -1,5 -1,9zm20 -1c0,7 -1,12 -4,16 -3,3 -7,5 -12,5 -5,0 -9,-2 -11,-5 -3,-4 -4,-9 -4,-16 0,-13 5,-20 15,-20 5,0 9,2 12,5 2,4 4,9 4,15zm31 -19l-37 65 -10 0 36 -65 11 0zm-5 46c0,4 0,6 1,8 1,2 2,3 3,3 3,0 4,-4 4,-11 0,-8 -1,-11 -4,-11 -1,0 -2,0 -3,2 -1,2 -1,5 -1,9zm20 0c0,6 -2,12 -4,15 -3,4 -7,5 -12,5 -5,0 -9,-2 -11,-5 -3,-4 -4,-9 -4,-15 0,-14 5,-21 15,-21 5,0 9,2 12,5 2,4 4,9 4,16z"/>
   <path class="fil13" d="M424 1293c0,5 -1,8 -4,11 -2,3 -6,5 -10,6l0 0c5,1 9,2 12,5 3,2 4,6 4,10 0,7 -2,11 -7,15 -4,3 -11,5 -19,5 -8,0 -14,-1 -19,-3l0 -12c2,1 5,2 8,3 3,1 6,1 9,1 5,0 8,-1 10,-2 2,-2 3,-4 3,-8 0,-3 -1,-5 -3,-6 -3,-1 -7,-2 -12,-2l-5 0 0 -11 5 0c5,0 9,0 11,-2 2,-1 3,-3 3,-6 0,-5 -3,-8 -9,-8 -2,0 -4,0 -6,1 -3,1 -5,2 -8,4l-6 -10c6,-4 13,-6 21,-6 7,0 12,1 16,4 4,3 6,7 6,11zm54 19c0,11 -2,19 -5,25 -4,5 -10,8 -18,8 -7,0 -13,-3 -17,-8 -4,-6 -6,-14 -6,-25 0,-12 2,-20 6,-26 4,-5 9,-8 17,-8 8,0 14,3 17,8 4,6 6,15 6,26zm-32 0c0,8 1,13 2,17 2,3 4,5 7,5 3,0 6,-2 7,-5 2,-4 2,-10 2,-17 0,-8 0,-14 -2,-18 -1,-3 -4,-5 -7,-5 -3,0 -5,2 -7,5 -1,4 -2,10 -2,18zm50 -14c0,4 0,7 1,9 1,2 2,3 3,3 3,0 5,-4 5,-12 0,-7 -2,-11 -5,-11 -1,0 -2,1 -3,3 -1,2 -1,5 -1,8zm20 0c0,7 -1,12 -4,16 -3,3 -7,5 -12,5 -5,0 -9,-2 -11,-5 -3,-4 -4,-9 -4,-16 0,-13 5,-20 15,-20 5,0 9,2 12,5 3,4 4,9 4,15zm31 -19l-37 65 -10 0 36 -65 11 0zm-5 46c0,3 0,6 1,8 1,2 2,3 3,3 3,0 4,-4 4,-11 0,-8 -1,-12 -4,-12 -1,0 -2,1 -3,3 -1,2 -1,5 -1,9zm20 0c0,6 -2,12 -4,15 -3,3 -7,5 -12,5 -5,0 -9,-2 -11,-5 -3,-4 -4,-9 -4,-15 0,-14 5,-21 15,-21 5,0 9,2 12,5 2,4 4,9 4,16z"/>
   <path class="fil13" d="M428 1939l-46 0 0 -10 17 -17c4,-5 8,-8 9,-10 2,-2 3,-4 3,-5 1,-2 1,-4 1,-5 0,-3 0,-5 -2,-6 -1,-2 -3,-2 -6,-2 -2,0 -5,0 -7,1 -2,2 -5,3 -7,5l-8 -8c3,-3 6,-5 8,-6 2,-1 4,-2 7,-3 2,-1 5,-1 8,-1 4,0 8,1 11,2 3,2 6,4 8,7 1,2 2,5 2,9 0,3 0,6 -1,8 -2,3 -3,6 -5,9 -3,2 -7,6 -12,11l-9 8 0 1 29 0 0 12zm51 0l-45 0 0 -10 16 -17c5,-5 8,-8 10,-10 1,-2 2,-4 3,-5 1,-2 1,-4 1,-5 0,-3 -1,-5 -2,-6 -2,-2 -4,-2 -6,-2 -3,0 -5,0 -7,1 -3,2 -5,3 -8,5l-7 -8c3,-3 5,-5 8,-6 2,-1 4,-2 6,-3 3,-1 6,-1 9,-1 4,0 8,1 11,2 3,2 5,4 7,7 2,2 3,5 3,9 0,3 -1,6 -2,8 -1,3 -3,6 -5,9 -2,2 -6,6 -12,11l-8 8 0 1 28 0 0 12zm17 -46c0,3 0,6 1,8 0,2 1,3 3,3 3,0 4,-4 4,-11 0,-8 -1,-11 -4,-11 -2,0 -3,0 -3,2 -1,2 -1,5 -1,9zm19 0c0,6 -1,12 -4,15 -2,4 -6,5 -11,5 -5,0 -9,-2 -12,-5 -2,-4 -4,-9 -4,-15 0,-14 5,-21 16,-21 5,0 9,2 11,5 3,4 4,9 4,16zm31 -20l-36 66 -11 0 37 -66 10 0zm-5 46c0,4 1,6 1,8 1,2 2,3 4,3 3,0 4,-4 4,-11 0,-8 -1,-11 -4,-11 -2,0 -3,1 -4,2 0,2 -1,5 -1,9zm20 0c0,7 -1,12 -4,15 -2,4 -6,5 -11,5 -5,0 -9,-1 -12,-5 -2,-3 -4,-9 -4,-15 0,-14 5,-21 16,-21 5,0 9,2 11,6 3,3 4,8 4,15z"/>
   <path class="fil13" d="M454 2249l-8 0 0 13 -13 0 0 -13 -28 0 0 -10 29 -42 12 0 0 41 8 0 0 11zm-21 -11l0 -11c0,-2 0,-5 0,-8 0,-4 0,-6 0,-6l0 0c-1,2 -2,4 -4,7l-12 18 16 0zm36 -22c0,4 0,7 1,9 1,2 2,3 3,3 3,0 4,-4 4,-12 0,-7 -1,-11 -4,-11 -1,0 -2,1 -3,3 -1,2 -1,5 -1,8zm20 0c0,7 -2,12 -4,16 -3,3 -7,5 -12,5 -5,0 -9,-2 -11,-5 -3,-4 -4,-9 -4,-16 0,-13 5,-20 15,-20 5,0 9,2 12,5 2,4 4,9 4,15zm31 -19l-37 65 -11 0 37 -65 11 0zm-5 46c0,3 0,6 1,8 0,2 2,3 3,3 3,0 4,-4 4,-11 0,-8 -1,-12 -4,-12 -1,0 -3,1 -3,3 -1,2 -1,5 -1,9zm20 -1c0,7 -2,12 -4,16 -3,3 -7,5 -12,5 -5,0 -9,-2 -11,-5 -3,-4 -5,-9 -5,-16 0,-13 6,-20 16,-20 5,0 9,2 12,5 2,4 4,9 4,15z"/>
   <path class="fil13" d="M414 2483l-14 0 0 -38 0 -7 1 -6c-3,2 -4,3 -5,4l-8 6 -6 -8 21 -17 11 0 0 66zm52 0l-14 0 0 -38 0 -7 0 -6c-2,2 -4,3 -5,4l-7 6 -7 -8 21 -17 12 0 0 66zm27 -46c0,3 1,6 1,8 1,2 2,3 4,3 2,0 4,-4 4,-11 0,-8 -2,-12 -4,-12 -2,0 -3,1 -4,3 0,2 -1,5 -1,9zm20 0c0,6 -1,12 -4,15 -3,3 -6,5 -12,5 -4,0 -8,-2 -11,-5 -3,-4 -4,-9 -4,-15 0,-14 5,-21 15,-21 6,0 9,2 12,5 3,4 4,9 4,16zm31 -20l-36 66 -11 0 36 -66 11 0zm-5 46c0,4 1,6 1,8 1,2 2,3 3,3 3,0 5,-4 5,-11 0,-8 -2,-11 -5,-11 -1,0 -2,1 -3,2 0,2 -1,5 -1,9zm20 0c0,7 -1,12 -4,15 -3,4 -7,5 -12,5 -5,0 -8,-1 -11,-5 -3,-3 -4,-9 -4,-15 0,-14 5,-21 15,-21 5,0 9,2 12,6 3,3 4,8 4,15z"/>
   <line class="fil14 str0" x1="1613" y1="1926" x2="1613" y2= "1961" />
   <line class="fil14 str0" x1="1613" y1="1332" x2="1613" y2= "1366" />
   <line class="fil14 str0" x1="1613" y1="747" x2="1613" y2= "781" />
   <line class="fil14 str0" x1="1613" y1="383" x2="1613" y2= "418" />
   <path class="fil15" d="M26 48l-26 0 0 -45 26 0 0 8 -17 0 0 9 16 0 0 8 -16 0 0 12 17 0 0 8zm15 -18l-11 -17 11 0 6 11 7 -11 11 0 -11 17 11 18 -10 0 -8 -12 -7 12 -10 0 11 -18zm48 18c-4,0 -7,-1 -9,-4l-1 0c1,3 1,4 1,5l0 14 -10 0 0 -50 8 0 1 5 1 0c2,-4 5,-5 9,-5 4,0 8,1 10,4 2,4 3,8 3,13 0,4 0,7 -1,10 -1,3 -3,5 -5,6 -2,1 -4,2 -7,2zm-3 -28c-2,0 -4,1 -5,2 -1,2 -1,4 -1,7l0 1c0,4 0,7 1,8 1,2 3,3 6,3 4,0 6,-4 6,-11 0,-3 -1,-6 -2,-7 -1,-2 -2,-3 -5,-3zm38 -1c-2,0 -3,1 -4,2 -2,2 -2,3 -2,6l13 0c0,-3 -1,-4 -2,-6 -1,-1 -3,-2 -5,-2zm1 29c-5,0 -9,-1 -12,-4 -4,-3 -5,-8 -5,-13 0,-6 1,-10 4,-14 3,-3 7,-4 12,-4 5,0 9,1 11,4 3,3 4,6 4,11l0 5 -22 0c0,2 1,4 3,6 1,1 3,2 6,2 2,0 4,0 6,0 2,-1 3,-2 5,-2l0 7c-1,1 -3,1 -5,2 -2,0 -4,0 -7,0zm41 -35c1,0 2,0 3,0l-1 9c0,0 -1,-1 -2,-1 -3,0 -6,1 -7,3 -2,1 -3,3 -3,6l0 18 -9 0 0 -35 7 0 1 6 1 0c1,-2 2,-3 4,-4 2,-2 4,-2 6,-2zm9 -8c0,-3 2,-5 5,-5 3,0 5,2 5,5 0,1 0,2 -1,3 -1,1 -2,1 -4,1 -3,0 -5,-1 -5,-4zm10 43l-10 0 0 -35 10 0 0 35zm24 -29c-2,0 -4,1 -5,2 -1,2 -2,3 -2,6l13 0c0,-3 -1,-4 -2,-6 -1,-1 -2,-2 -4,-2zm1 29c-6,0 -10,-1 -13,-4 -3,-3 -5,-8 -5,-13 0,-6 2,-10 5,-14 3,-3 6,-4 12,-4 4,0 8,1 11,4 2,3 4,6 4,11l0 5 -22 0c0,2 1,4 2,6 2,1 4,2 6,2 2,0 4,0 6,0 2,-1 4,-2 6,-2l0 7c-2,1 -3,1 -5,2 -2,0 -4,0 -7,0zm53 0l-9 0 0 -20c0,-3 -1,-5 -2,-6 -1,-1 -2,-2 -4,-2 -3,0 -4,1 -6,3 -1,2 -1,4 -1,8l0 17 -10 0 0 -35 7 0 2 5 0 0c1,-2 3,-3 5,-4 1,-1 3,-1 6,-1 4,0 7,1 9,3 2,2 3,5 3,9l0 23zm23 0c-10,0 -16,-6 -16,-17 0,-6 2,-11 5,-14 3,-3 7,-4 12,-4 4,0 8,1 11,2l-3 7c-1,0 -3,-1 -4,-1 -1,-1 -3,-1 -4,-1 -5,0 -7,4 -7,11 0,6 2,10 7,10 2,0 4,-1 5,-1 2,-1 3,-1 5,-2l0 8c-2,1 -3,1 -5,2 -1,0 -3,0 -6,0zm33 -29c-2,0 -4,1 -5,2 -1,2 -2,3 -2,6l13 0c0,-3 0,-4 -2,-6 -1,-1 -2,-2 -4,-2zm1 29c-5,0 -10,-1 -13,-4 -3,-3 -4,-8 -4,-13 0,-6 1,-10 4,-14 3,-3 7,-4 12,-4 5,0 8,1 11,4 3,3 4,6 4,11l0 5 -22 0c0,2 1,4 2,6 2,1 4,2 7,2 2,0 4,0 5,0 2,-1 4,-2 6,-2l0 7c-2,1 -3,1 -5,2 -2,0 -4,0 -7,0zm76 -23c0,7 -3,13 -7,17 -4,4 -10,6 -18,6l-12 0 0 -45 14 0c7,0 13,2 17,6 4,3 6,9 6,16zm-10 0c0,-10 -4,-14 -13,-14l-5 0 0 29 4 0c9,0 14,-5 14,-15zm18 -20c0,-3 1,-5 5,-5 3,0 5,2 5,5 0,1 -1,2 -1,3 -1,1 -3,1 -4,1 -4,0 -5,-1 -5,-4zm9 43l-9 0 0 -35 9 0 0 35zm34 -11c0,4 -1,7 -4,8 -2,2 -6,3 -11,3 -2,0 -4,0 -6,0 -2,-1 -3,-1 -5,-2l0 -8c2,1 4,2 6,3 2,0 4,0 6,0 3,0 5,-1 5,-3 0,0 0,-1 -1,-1 0,-1 -1,-1 -2,-2 -1,-1 -3,-1 -5,-2 -2,-1 -4,-2 -5,-3 -2,-1 -2,-2 -3,-3 -1,-1 -1,-3 -1,-5 0,-3 1,-5 4,-7 2,-1 5,-2 10,-2 4,0 8,1 12,2l-3 7c-2,-1 -3,-1 -5,-2 -1,0 -3,0 -5,0 -2,0 -4,0 -4,2 0,1 1,1 2,2 1,1 3,2 6,3 2,1 4,2 5,3 2,1 3,2 3,3 1,1 1,3 1,4zm22 4c1,0 3,-1 6,-1l0 7c-3,1 -6,1 -9,1 -4,0 -6,-1 -8,-3 -2,-2 -3,-4 -3,-8l0 -17 -4 0 0 -4 5 -3 3 -7 6 0 0 7 9 0 0 7 -9 0 0 17c0,1 0,2 1,3 0,0 1,1 3,1zm31 -28c2,0 3,0 4,0l-1 9c-1,0 -2,-1 -3,-1 -3,0 -5,1 -7,3 -1,1 -2,3 -2,6l0 18 -10 0 0 -35 7 0 2 6 0 0c1,-2 3,-3 5,-4 1,-2 3,-2 5,-2zm9 -8c0,-3 2,-5 5,-5 4,0 6,2 6,5 0,1 -1,2 -2,3 -1,1 -2,1 -4,1 -3,0 -5,-1 -5,-4zm10 43l-9 0 0 -35 9 0 0 35zm29 -35c4,0 7,1 9,4 3,4 4,8 4,13 0,6 -1,10 -4,14 -2,3 -5,4 -9,4 -4,0 -8,-1 -10,-4l0 0 -2 4 -7 0 0 -48 9 0 0 11c0,1 0,4 0,7l0 0c2,-4 6,-5 10,-5zm-3 7c-2,0 -4,1 -5,2 -1,2 -2,4 -2,7l0 1c0,4 1,7 2,8 1,2 3,3 5,3 2,0 3,-1 5,-3 1,-2 1,-4 1,-8 0,-3 0,-6 -1,-7 -2,-2 -3,-3 -5,-3zm48 28l-2 -5 0 0c-1,2 -3,3 -4,4 -2,1 -4,1 -7,1 -4,0 -7,-1 -9,-3 -2,-2 -3,-5 -3,-9l0 -23 10 0 0 20c0,3 0,5 1,6 1,1 2,2 4,2 3,0 5,-1 6,-3 1,-2 1,-5 1,-9l0 -16 10 0 0 35 -7 0zm31 -7c2,0 4,-1 6,-1l0 7c-3,1 -5,1 -9,1 -3,0 -6,-1 -8,-3 -2,-2 -2,-4 -2,-8l0 -17 -5 0 0 -4 5 -3 3 -7 6 0 0 7 9 0 0 7 -9 0 0 17c0,1 0,2 1,3 1,0 2,1 3,1zm12 -36c0,-3 2,-5 5,-5 4,0 5,2 5,5 0,1 0,2 -1,3 -1,1 -2,1 -4,1 -3,0 -5,-1 -5,-4zm10 43l-9 0 0 -35 9 0 0 35zm17 -18c0,4 1,6 2,8 1,2 3,3 5,3 3,0 5,-1 6,-3 1,-2 1,-4 1,-8 0,-3 0,-6 -1,-7 -1,-2 -3,-3 -6,-3 -2,0 -4,1 -5,3 -1,1 -2,4 -2,7zm24 0c0,6 -2,10 -5,13 -3,4 -7,5 -12,5 -3,0 -6,-1 -9,-2 -2,-1 -4,-3 -5,-6 -2,-3 -2,-6 -2,-10 0,-5 1,-10 4,-13 3,-3 7,-4 12,-4 4,0 6,0 9,2 3,1 4,3 6,6 1,3 2,6 2,9zm39 18l-9 0 0 -20c0,-3 -1,-5 -2,-6 -1,-1 -2,-2 -4,-2 -2,0 -4,1 -5,3 -2,2 -2,4 -2,8l0 17 -10 0 0 -35 8 0 1 5 0 0c1,-2 3,-3 5,-4 1,-1 4,-1 6,-1 4,0 7,1 9,3 2,2 3,5 3,9l0 23z"/>
   <path class="fil13" d="M1203 725l-29 -12 0 -4 29 -14 0 6 -20 9 20 8 0 7zm26 6l-9 0 0 -24 1 -4 0 -4c-2,1 -3,2 -3,3l-5 3 -4 -5 13 -11 7 0 0 42zm25 -32l9 0 6 18c1,2 1,3 1,6l0 0c1,-2 1,-4 2,-6l6 -18 9 0 -14 36c-1,3 -3,6 -5,8 -2,1 -5,2 -8,2 -1,0 -3,0 -4,0l0 -7c1,0 2,0 3,0 2,0 3,0 4,-1 1,-1 2,-3 3,-5l0 -1 -12 -32zm51 6c-2,0 -4,0 -5,2 -1,1 -1,2 -2,4l13 0c0,-2 -1,-3 -2,-4 -1,-2 -3,-2 -4,-2zm1 27c-5,0 -9,-2 -12,-5 -3,-2 -5,-6 -5,-12 0,-5 2,-9 4,-12 3,-3 7,-4 12,-4 4,0 8,1 10,3 3,3 4,7 4,11l0 4 -21 0c0,3 1,5 2,6 2,1 4,2 6,2 2,0 4,0 6,0 1,-1 3,-1 5,-2l0 6c-2,1 -3,2 -5,2 -2,0 -4,1 -6,1zm40 -1l-2 -4 0 0c-1,2 -3,3 -4,4 -2,0 -4,1 -6,1 -3,0 -6,-1 -8,-3 -1,-2 -2,-4 -2,-7 0,-4 1,-6 3,-8 3,-2 6,-2 11,-3l6 0 0 -1c0,-3 -2,-5 -5,-5 -3,0 -6,1 -9,2l-3 -6c3,-2 7,-2 12,-2 4,0 7,0 10,2 2,2 3,5 3,9l0 21 -6 0zm-2 -15l-4 0c-2,0 -4,1 -5,2 -2,1 -2,2 -2,4 0,2 1,3 4,3 2,0 4,0 5,-1 1,-2 2,-3 2,-5l0 -3zm35 -17c1,0 2,0 3,0l-1 8c-1,0 -1,0 -2,0 -3,0 -5,0 -7,2 -1,1 -2,3 -2,6l0 16 -9 0 0 -32 7 0 1 6 0 0c1,-2 3,-4 4,-5 2,-1 4,-1 6,-1z"/>
   <line class="fil14 str0" x1="942" y1="764" x2="1614" y2= "764" />
   <path class="fil13" d="M1180 1910l-29 0 0 -6 10 -10c3,-3 5,-6 6,-7 1,-1 2,-2 2,-3 1,-1 1,-2 1,-4 0,-1 0,-2 -1,-3 -1,-1 -2,-1 -4,-1 -2,0 -3,0 -5,1 -1,0 -3,1 -4,3l-5 -6c2,-2 4,-3 5,-4 1,0 3,-1 4,-1 2,-1 4,-1 6,-1 2,0 5,1 7,2 2,1 3,2 4,4 1,1 2,3 2,5 0,2 0,4 -1,6 -1,2 -2,3 -3,5 -2,2 -4,4 -8,8l-5 5 0 0 18 0 0 7zm4 -12l0 -7 15 0 0 7 -15 0zm47 -20c0,3 -1,5 -3,7 -1,2 -4,3 -6,3l0 1c3,0 5,1 7,3 2,1 3,4 3,6 0,4 -2,7 -5,10 -3,2 -7,3 -12,3 -5,0 -9,-1 -12,-2l0 -8c2,1 3,2 5,2 2,1 4,1 6,1 3,0 5,0 6,-1 2,-1 2,-3 2,-5 0,-2 0,-4 -2,-4 -1,-1 -4,-2 -8,-2l-3 0 0 -6 4 0c3,0 5,-1 7,-2 1,0 2,-2 2,-4 0,-3 -2,-5 -6,-5 -1,0 -3,1 -4,1 -2,0 -3,1 -5,2l-4 -6c4,-2 8,-4 14,-4 4,0 7,1 10,3 2,2 4,4 4,7zm18 1l10 0 6 17c0,2 1,4 1,6l0 0c0,-2 1,-4 1,-6l6 -17 9 0 -13 35c-1,4 -3,6 -5,8 -3,2 -5,2 -8,2 -2,0 -3,0 -5,0l0 -7c1,0 2,0 4,0 1,0 2,0 4,-1 1,-1 2,-2 2,-4l1 -2 -13 -31zm51 5c-2,0 -3,1 -4,2 -1,1 -2,3 -2,5l12 0c0,-2 0,-4 -2,-5 -1,-1 -2,-2 -4,-2zm1 27c-5,0 -9,-1 -12,-4 -3,-3 -4,-7 -4,-12 0,-6 1,-10 4,-13 3,-3 6,-4 11,-4 5,0 8,1 11,4 2,2 3,6 3,10l0 5 -20 0c0,2 1,4 2,5 1,2 3,3 6,3 2,0 3,-1 5,-1 2,0 4,-1 6,-2l0 7c-2,1 -4,1 -5,1 -2,1 -4,1 -7,1zm41 -1l-2 -4 0 0c-2,2 -3,3 -5,4 -1,1 -3,1 -6,1 -3,0 -5,-1 -7,-3 -2,-1 -3,-4 -3,-7 0,-3 1,-6 4,-8 2,-1 6,-2 11,-2l5 0 0 -2c0,-3 -2,-5 -5,-5 -2,0 -5,1 -9,3l-3 -6c4,-2 8,-3 12,-3 5,0 8,1 10,3 3,2 4,4 4,8l0 21 -6 0zm-3 -14l-3 0c-3,0 -5,0 -6,1 -1,1 -2,2 -2,4 0,2 2,4 4,4 2,0 4,-1 5,-2 1,-1 2,-3 2,-5l0 -2zm35 -18c2,0 3,0 3,0l0 8c-1,0 -2,0 -3,0 -3,0 -5,1 -6,2 -2,2 -3,4 -3,6l0 16 -8 0 0 -31 6 0 1 5 1 0c1,-2 2,-3 4,-4 2,-1 3,-2 5,-2zm31 23c0,3 -1,6 -3,7 -2,2 -6,3 -10,3 -3,0 -5,0 -6,0 -2,-1 -3,-1 -5,-2l0 -7c2,1 4,1 6,2 2,0 4,1 5,1 3,0 5,-1 5,-3 0,-1 0,-1 -1,-2 0,0 -1,-1 -2,-1 -1,-1 -2,-1 -4,-2 -3,-1 -4,-2 -6,-3 -1,-1 -1,-2 -2,-3 -1,-1 -1,-3 -1,-4 0,-3 1,-5 3,-7 3,-1 6,-2 10,-2 4,0 7,1 11,2l-3 7c-1,-1 -3,-2 -4,-2 -1,0 -3,-1 -4,-1 -3,0 -4,1 -4,2 0,1 0,2 1,2 1,1 3,2 6,3 2,1 4,2 5,3 1,1 2,2 3,3 0,1 0,2 0,4z"/>
   <line class="fil14 str0" x1="942" y1="1943" x2="1614" y2= "1943" />
   <path class="fil13" d="M1172 1316l-9 0 0 -24 0 -4 0 -4c-1,1 -2,2 -3,3l-4 3 -5 -5 14 -11 7 0 0 42zm11 -12l0 -7 15 0 0 7 -15 0zm49 12l-30 0 0 -6 11 -11c3,-3 5,-5 6,-6 1,-1 2,-2 2,-4 0,-1 1,-2 1,-3 0,-1 -1,-3 -2,-4 -1,0 -2,-1 -3,-1 -2,0 -4,1 -5,1 -2,1 -3,2 -5,4l-5 -6c2,-2 4,-3 5,-4 2,-1 3,-1 5,-2 1,0 3,0 5,0 3,0 5,0 7,1 2,1 4,3 5,4 1,2 1,4 1,6 0,2 0,4 -1,6 0,1 -1,3 -3,5 -1,2 -4,4 -7,7l-6 5 0 1 19 0 0 7zm17 -32l9 0 6 18c1,2 1,4 1,6l0 0c0,-2 1,-4 2,-6l5 -18 10 0 -14 36c-1,4 -3,6 -5,8 -2,1 -5,2 -8,2 -2,0 -3,0 -4,0l0 -7c1,0 2,0 3,0 1,0 3,0 4,-1 1,-1 2,-3 3,-5l0 -1 -12 -32zm50 6c-1,0 -3,0 -4,2 -1,1 -1,2 -2,5l13 0c0,-3 -1,-4 -2,-5 -1,-2 -3,-2 -5,-2zm2 27c-5,0 -9,-2 -12,-5 -3,-2 -5,-6 -5,-12 0,-5 2,-9 4,-12 3,-3 7,-4 11,-4 5,0 8,1 11,4 2,2 4,6 4,10l0 4 -21 0c0,3 1,5 2,6 2,2 4,2 6,2 2,0 4,0 6,0 1,-1 3,-1 5,-2l0 6c-2,1 -3,2 -5,2 -2,1 -4,1 -6,1zm40 -1l-2 -4 0 0c-1,2 -3,3 -4,4 -2,0 -4,1 -6,1 -4,0 -6,-1 -8,-3 -1,-2 -2,-4 -2,-7 0,-4 1,-6 3,-8 3,-1 6,-2 11,-3l5 0 0 -1c0,-3 -1,-5 -5,-5 -2,0 -5,1 -8,2l-3 -5c3,-2 7,-3 12,-3 4,0 7,1 10,2 2,2 3,5 3,9l0 21 -6 0zm-3 -15l-3 1c-2,0 -4,0 -6,1 -1,1 -1,2 -1,4 0,2 1,3 4,3 2,0 3,0 5,-1 1,-2 1,-3 1,-5l0 -3zm36 -17c1,0 2,0 3,0l-1 8c-1,0 -1,0 -2,0 -3,0 -5,1 -7,2 -2,1 -2,3 -2,6l0 16 -9 0 0 -32 7 0 1 6 0 0c1,-2 3,-4 4,-5 2,-1 4,-1 6,-1zm31 23c0,3 -1,5 -4,7 -2,2 -5,3 -10,3 -2,0 -4,0 -6,-1 -1,0 -3,0 -4,-1l0 -7c1,0 3,1 5,2 2,0 4,0 5,0 4,0 5,-1 5,-2 0,-1 0,-2 0,-2 -1,0 -2,-1 -3,-1 -1,-1 -2,-2 -4,-2 -2,-1 -4,-2 -5,-3 -1,-1 -2,-2 -3,-3 0,-1 0,-3 0,-4 0,-3 1,-5 3,-7 2,-2 5,-2 9,-2 4,0 8,1 11,2l-2 6c-2,0 -3,-1 -5,-1 -1,-1 -2,-1 -4,-1 -2,0 -4,1 -4,2 0,1 1,2 1,2 1,1 3,2 6,3 2,1 4,2 5,3 2,0 2,1 3,3 0,1 1,2 1,4z"/>
   <line class="fil14 str0" x1="942" y1="1349" x2="1614" y2= "1349" />
   <line class="fil14 str0" x1="942" y1="400" x2="1614" y2= "400" />
   <path class="fil13" d="M1166 373l-9 0 0 -41 24 0 0 7 -15 0 0 11 14 0 0 7 -14 0 0 16zm40 -32c2,0 2,0 3,0l0 8c-1,0 -2,0 -3,0 -3,0 -5,1 -6,2 -2,2 -3,4 -3,6l0 16 -8 0 0 -32 6 0 1 6 1 0c1,-2 2,-3 4,-4 2,-2 3,-2 5,-2zm21 6c-2,0 -3,1 -4,2 -1,1 -2,3 -2,5l12 0c0,-2 0,-4 -2,-5 -1,-1 -2,-2 -4,-2zm1 27c-5,0 -9,-1 -12,-4 -3,-3 -4,-7 -4,-12 0,-6 1,-10 4,-13 3,-3 6,-4 11,-4 5,0 8,1 11,4 2,2 3,6 3,10l0 5 -20 0c0,2 1,4 2,5 1,2 3,2 6,2 2,0 3,0 5,0 2,-1 4,-1 6,-2l0 7c-2,0 -4,1 -5,1 -2,1 -4,1 -7,1zm43 -10c0,3 -2,6 -4,7 -2,2 -5,3 -10,3 -2,0 -4,0 -6,-1 -2,0 -3,0 -5,-1l0 -7c2,1 4,1 6,2 2,0 4,1 5,1 3,0 5,-1 5,-3 0,-1 0,-1 -1,-2 0,0 -1,-1 -2,-1 -1,-1 -2,-1 -4,-2 -2,-1 -4,-2 -5,-3 -1,-1 -2,-2 -3,-3 0,-1 -1,-3 -1,-4 0,-3 2,-5 4,-7 2,-1 5,-2 9,-2 4,0 8,1 11,2l-2 7c-2,-1 -3,-2 -5,-2 -1,0 -3,-1 -4,-1 -3,0 -4,1 -4,2 0,1 0,2 1,2 1,1 3,2 6,3 2,1 4,2 5,3 1,1 2,2 3,3 0,1 1,2 1,4zm36 9l-9 0 0 -18c0,-5 -2,-7 -5,-7 -2,0 -4,1 -5,2 -1,2 -2,5 -2,8l0 15 -9 0 0 -44 9 0 0 9c0,1 0,2 0,5l0 3 0 0c2,-4 5,-5 9,-5 4,0 7,1 9,3 2,2 3,5 3,9l0 20zm22 -26c-2,0 -3,1 -4,2 -1,1 -2,3 -2,5l12 0c0,-2 -1,-4 -2,-5 -1,-1 -2,-2 -4,-2zm1 27c-5,0 -9,-1 -12,-4 -3,-3 -4,-7 -4,-12 0,-6 1,-10 4,-13 2,-3 6,-4 11,-4 4,0 8,1 10,4 3,2 4,6 4,10l0 5 -20 0c0,2 0,4 2,5 1,2 3,2 6,2 1,0 3,0 5,0 2,-1 3,-1 5,-2l0 7c-1,0 -3,1 -5,1 -1,1 -3,1 -6,1zm38 -33c1,0 2,0 3,0l-1 8c0,0 -1,0 -2,0 -3,0 -5,1 -7,2 -1,2 -2,4 -2,6l0 16 -9 0 0 -32 7 0 1 6 1 0c0,-2 2,-3 4,-4 1,-2 3,-2 5,-2zm31 23c0,3 -1,6 -3,7 -3,2 -6,3 -11,3 -2,0 -4,0 -6,-1 -1,0 -3,0 -4,-1l0 -7c1,1 3,1 5,2 2,0 4,1 6,1 3,0 4,-1 4,-3 0,-1 0,-1 0,-2 -1,0 -1,-1 -2,-1 -1,-1 -3,-1 -5,-2 -2,-1 -4,-2 -5,-3 -1,-1 -2,-2 -2,-3 -1,-1 -1,-3 -1,-4 0,-3 1,-5 3,-7 2,-1 5,-2 9,-2 4,0 8,1 12,2l-3 7c-2,-1 -3,-2 -4,-2 -2,0 -3,-1 -5,-1 -2,0 -4,1 -4,2 0,1 1,2 2,2 0,1 2,2 5,3 3,1 4,2 6,3 1,1 2,2 2,3 1,1 1,2 1,4z"/>
   <path class="fil13" d="M1175 2419c4,0 7,1 10,4 2,2 3,5 3,9 0,5 -1,8 -4,11 -3,2 -7,3 -12,3 -5,0 -9,0 -12,-2l0 -8c2,1 4,2 6,2 2,1 4,1 5,1 6,0 8,-2 8,-6 0,-5 -2,-7 -8,-7 -1,0 -2,0 -3,1 -1,0 -2,0 -3,0l-4 -2 2 -21 22 0 0 8 -14 0 -1 8 1 0c1,-1 2,-1 4,-1zm29 9l-11 0 0 -6 11 0 0 -11 7 0 0 11 11 0 0 6 -11 0 0 11 -7 0 0 -11zm35 -14l10 0 6 18c0,1 1,3 1,5l0 0c0,-2 1,-3 1,-5l6 -18 10 0 -14 36c-1,3 -3,6 -5,7 -2,2 -5,3 -8,3 -2,0 -3,0 -5,-1l0 -7c1,1 3,1 4,1 1,0 3,-1 4,-2 1,-1 2,-2 3,-4l0 -1 -13 -32zm51 6c-1,0 -3,0 -4,1 -1,1 -2,3 -2,5l12 0c0,-2 0,-4 -1,-5 -1,-1 -3,-1 -5,-1zm2 26c-6,0 -10,-1 -12,-4 -3,-3 -5,-7 -5,-12 0,-5 2,-9 4,-12 3,-3 7,-5 11,-5 5,0 8,2 11,4 2,3 4,6 4,11l0 4 -21 0c0,2 1,4 2,6 2,1 4,2 6,2 2,0 4,0 5,-1 2,0 4,-1 6,-2l0 7c-2,1 -3,1 -5,2 -2,0 -4,0 -6,0zm40 0l-2 -5 0 0c-1,2 -3,4 -5,4 -1,1 -3,1 -6,1 -3,0 -5,-1 -7,-2 -2,-2 -2,-5 -2,-8 0,-3 1,-6 3,-7 2,-2 6,-3 11,-3l5 0 0 -1c0,-4 -1,-5 -5,-5 -2,0 -5,0 -9,2l-2 -6c3,-2 7,-3 12,-3 4,0 7,1 10,3 2,2 3,5 3,9l0 21 -6 0zm-3 -15l-3 0c-3,0 -4,1 -6,1 -1,1 -2,3 -2,4 0,3 2,4 5,4 2,0 3,-1 5,-2 1,-1 1,-2 1,-4l0 -3zm36 -18c1,0 2,0 3,1l-1 8c-1,0 -2,-1 -3,-1 -2,0 -5,1 -6,3 -2,1 -2,3 -2,6l0 16 -9 0 0 -32 7 0 1 5 0 0c1,-2 3,-3 4,-4 2,-1 4,-2 6,-2zm31 23c0,4 -1,6 -4,8 -2,2 -5,2 -10,2 -2,0 -4,0 -6,0 -1,0 -3,-1 -4,-2l0 -7c1,1 3,2 5,2 2,1 4,1 5,1 4,0 5,-1 5,-3 0,0 0,-1 -1,-1 0,-1 -1,-1 -2,-2 -1,0 -2,-1 -4,-2 -2,-1 -4,-2 -5,-3 -1,0 -2,-1 -3,-3 0,-1 -1,-2 -1,-4 0,-3 2,-5 4,-6 2,-2 5,-3 9,-3 4,0 8,1 11,3l-2 6c-2,-1 -3,-1 -5,-2 -1,0 -3,0 -4,0 -3,0 -4,0 -4,2 0,1 1,1 1,2 1,0 3,1 6,2 2,1 4,2 5,3 1,1 2,2 3,3 0,1 1,3 1,4z"/>
   <line class="fil14 str0" x1="942" y1="2479" x2="1614" y2= "2479" />
   <line class="fil14 str0" x1="1613" y1="2461" x2="1613" y2= "2495" />
   <path class="fil13" d="M1178 2201c0,3 0,5 -2,7 -2,1 -4,3 -7,3l0 1c4,0 6,1 8,3 2,1 3,3 3,6 0,4 -2,7 -5,10 -3,2 -7,3 -12,3 -5,0 -9,-1 -12,-2l0 -8c1,1 3,2 5,2 2,1 4,1 6,1 3,0 5,-1 6,-2 2,-1 2,-2 2,-4 0,-2 0,-4 -2,-4 -2,-1 -4,-2 -8,-2l-3 0 0 -6 3 0c4,0 6,-1 8,-2 1,-1 2,-2 2,-4 0,-3 -2,-5 -6,-5 -2,0 -3,0 -4,1 -2,0 -3,1 -5,2l-4 -6c4,-3 8,-4 13,-4 5,0 8,1 11,3 2,1 3,4 3,7zm6 20l0 -7 15 0 0 7 -15 0zm34 -14c4,0 7,1 10,3 2,2 3,5 3,9 0,5 -1,9 -4,11 -3,3 -7,4 -12,4 -5,0 -9,-1 -11,-2l0 -8c1,1 3,1 5,2 2,0 4,1 5,1 6,0 8,-2 8,-7 0,-4 -2,-6 -8,-6 -1,0 -2,0 -3,0 -1,0 -2,1 -3,1l-4 -2 2 -21 23 0 0 7 -15 0 -1 8 1 0c1,0 2,0 4,0zm31 -6l10 0 6 18c0,2 1,4 1,6l0 0c0,-2 1,-4 1,-6l6 -18 9 0 -13 36c-1,4 -3,6 -5,8 -3,2 -5,2 -8,2 -2,0 -3,0 -5,0l0 -7c1,0 2,0 4,0 1,0 2,0 4,-1 1,-1 2,-2 2,-4l1 -2 -13 -32zm51 6c-2,0 -3,1 -4,2 -1,1 -2,3 -2,5l12 0c0,-2 0,-4 -2,-5 -1,-1 -2,-2 -4,-2zm1 27c-5,0 -9,-2 -12,-4 -3,-3 -4,-7 -4,-12 0,-6 1,-10 4,-13 3,-3 6,-4 11,-4 5,0 8,1 11,4 2,2 3,6 3,10l0 5 -20 0c0,2 1,4 2,5 1,2 3,2 6,2 2,0 3,0 5,0 2,-1 4,-1 6,-2l0 7c-2,0 -4,1 -5,1 -2,1 -4,1 -7,1zm41 -1l-2 -4 0 0c-2,2 -3,3 -5,4 -1,1 -3,1 -6,1 -3,0 -5,-1 -7,-3 -2,-1 -3,-4 -3,-7 0,-4 1,-6 4,-8 2,-1 6,-2 11,-2l5 -1 0 -1c0,-3 -2,-5 -5,-5 -2,0 -5,1 -9,3l-3 -6c4,-2 8,-3 12,-3 5,0 8,1 10,3 3,1 4,4 4,8l0 21 -6 0zm-3 -14l-3 0c-3,0 -5,0 -6,1 -1,1 -2,2 -2,4 0,2 2,4 4,4 2,0 4,-1 5,-2 1,-1 2,-3 2,-5l0 -2zm35 -18c2,0 3,0 3,0l0 8c-1,0 -2,0 -3,0 -3,0 -5,1 -6,2 -2,2 -3,4 -3,6l0 16 -8 0 0 -32 6 0 1 6 1 0c1,-2 2,-3 4,-4 2,-2 3,-2 5,-2zm31 23c0,3 -1,6 -3,7 -2,2 -6,3 -10,3 -3,0 -5,0 -6,-1 -2,0 -3,0 -5,-1l0 -7c2,1 4,1 6,2 2,0 4,1 5,1 3,0 5,-1 5,-3 0,-1 0,-1 -1,-2 0,0 -1,-1 -2,-1 -1,-1 -2,-1 -4,-2 -3,-1 -4,-2 -6,-3 -1,-1 -1,-2 -2,-3 -1,-1 -1,-3 -1,-4 0,-3 1,-5 3,-7 3,-1 6,-2 10,-2 4,0 7,1 11,2l-3 7c-1,-1 -3,-2 -4,-2 -1,0 -3,-1 -4,-1 -3,0 -4,1 -4,2 0,1 0,2 1,2 1,1 3,2 6,3 2,1 4,2 5,3 1,1 2,2 3,3 0,1 0,2 0,4z"/>
   <line class="fil14 str0" x1="942" y1="2266" x2="1614" y2= "2266" />
   <line class="fil14 str0" x1="1613" y1="2249" x2="1613" y2= "2283" />
  </g>
 </g>
</svg>
